<svg width="32" height="32" viewBox="0 0 32 32" fill="none" xmlns="http://www.w3.org/2000/svg">
  <!-- Brain icon with leaf -->
  <defs>
    <linearGradient id="brainGradient" x1="0%" y1="0%" x2="100%" y2="100%">
      <stop offset="0%" style="stop-color:#10b981;stop-opacity:1" />
      <stop offset="100%" style="stop-color:#059669;stop-opacity:1" />
    </linearGradient>
    <linearGradient id="leafGradient" x1="0%" y1="0%" x2="100%" y2="100%">
      <stop offset="0%" style="stop-color:#34d399;stop-opacity:1" />
      <stop offset="100%" style="stop-color:#10b981;stop-opacity:1" />
    </linearGradient>
  </defs>
  
  <!-- Background circle -->
  <circle cx="16" cy="16" r="15" fill="url(#brainGradient)" stroke="#059669" stroke-width="1"/>
  
  <!-- Brain lobes -->
  <path d="M12 12 Q10 14 12 16 Q10 18 12 20 Q14 22 16 20 Q18 22 20 20 Q22 18 20 16 Q22 14 20 12 Q18 10 16 12 Q14 10 12 12 Z" fill="white" opacity="0.9"/>
  
  <!-- Brain details -->
  <path d="M14 14 Q13 15 14 16 Q13 17 14 18 Q15 19 16 18 Q17 19 18 18 Q19 17 18 16 Q19 15 18 14 Q17 13 16 14 Q15 13 14 14 Z" fill="url(#brainGradient)" opacity="0.7"/>
  
  <!-- Leaf symbol -->
  <path d="M24 8 Q26 10 24 12 Q22 14 20 12 Q18 10 20 8 Q22 6 24 8 Z" fill="url(#leafGradient)"/>
  <path d="M22 9 Q23 10 22 11 Q21 12 20 11 Q19 10 20 9 Q21 8 22 9 Z" fill="white" opacity="0.8"/>
  
  <!-- AI text -->
  <text x="16" y="28" font-family="Arial, sans-serif" font-size="6" font-weight="bold" text-anchor="middle" fill="white">AI</text>
</svg>
